<?xml version="1.0" encoding="UTF-8"?>
<svg id="Capa_2" data-name="Capa 2" xmlns="http://www.w3.org/2000/svg" xmlns:xlink="http://www.w3.org/1999/xlink" viewBox="0 0 427.02 467.31">
  <defs>
    <style>
      .cls-1 {
        fill: url(#Degradado_sin_nombre_39-8);
      }

      .cls-2 {
        fill: url(#Degradado_sin_nombre_39-2);
      }

      .cls-3 {
        fill: url(#Degradado_sin_nombre_39-10);
      }

      .cls-4 {
        fill: url(#Degradado_sin_nombre_39-5);
      }

      .cls-5 {
        fill: url(#Degradado_sin_nombre_30-2);
      }

      .cls-6 {
        fill: url(#Degradado_sin_nombre_39-9);
      }

      .cls-7 {
        fill: url(#Degradado_sin_nombre_39-3);
      }

      .cls-8 {
        fill: url(#Degradado_sin_nombre_39);
      }

      .cls-9 {
        fill: url(#Degradado_sin_nombre_39-11);
      }

      .cls-10 {
        fill: url(#Degradado_sin_nombre_30);
      }

      .cls-11 {
        fill: url(#Degradado_sin_nombre_39-7);
      }

      .cls-12 {
        fill: url(#Degradado_sin_nombre_39-4);
      }

      .cls-13 {
        fill: url(#Degradado_sin_nombre_39-6);
      }
    </style>
    <linearGradient id="Degradado_sin_nombre_39" data-name="Degradado sin nombre 39" x1="3.64" y1="393.46" x2="56.82" y2="597.03" gradientUnits="userSpaceOnUse">
      <stop offset=".3" stop-color="#ef3711"/>
      <stop offset=".5" stop-color="#ee3413"/>
      <stop offset=".64" stop-color="#ec2e1c"/>
      <stop offset=".76" stop-color="#e8232c"/>
      <stop offset=".85" stop-color="#e4173d"/>
    </linearGradient>
    <linearGradient id="Degradado_sin_nombre_39-2" data-name="Degradado sin nombre 39" x1="33.73" y1="385.6" x2="86.91" y2="589.17" xlink:href="#Degradado_sin_nombre_39"/>
    <linearGradient id="Degradado_sin_nombre_39-3" data-name="Degradado sin nombre 39" x1="80.7" y1="373.33" x2="133.88" y2="576.9" xlink:href="#Degradado_sin_nombre_39"/>
    <linearGradient id="Degradado_sin_nombre_39-4" data-name="Degradado sin nombre 39" x1="120.44" y1="362.95" x2="173.62" y2="566.52" xlink:href="#Degradado_sin_nombre_39"/>
    <linearGradient id="Degradado_sin_nombre_39-5" data-name="Degradado sin nombre 39" x1="159.2" y1="352.82" x2="212.38" y2="556.4" xlink:href="#Degradado_sin_nombre_39"/>
    <linearGradient id="Degradado_sin_nombre_39-6" data-name="Degradado sin nombre 39" x1="197.96" y1="342.7" x2="251.14" y2="546.27" xlink:href="#Degradado_sin_nombre_39"/>
    <linearGradient id="Degradado_sin_nombre_39-7" data-name="Degradado sin nombre 39" x1="234.48" y1="333.16" x2="287.66" y2="536.73" xlink:href="#Degradado_sin_nombre_39"/>
    <linearGradient id="Degradado_sin_nombre_39-8" data-name="Degradado sin nombre 39" x1="270.04" y1="323.87" x2="323.22" y2="527.44" xlink:href="#Degradado_sin_nombre_39"/>
    <linearGradient id="Degradado_sin_nombre_39-9" data-name="Degradado sin nombre 39" x1="304.42" y1="314.89" x2="357.6" y2="518.46" xlink:href="#Degradado_sin_nombre_39"/>
    <linearGradient id="Degradado_sin_nombre_39-10" data-name="Degradado sin nombre 39" x1="339.41" y1="305.75" x2="392.58" y2="509.32" xlink:href="#Degradado_sin_nombre_39"/>
    <linearGradient id="Degradado_sin_nombre_39-11" data-name="Degradado sin nombre 39" x1="372.65" y1="297.07" x2="425.83" y2="500.64" xlink:href="#Degradado_sin_nombre_39"/>
    <linearGradient id="Degradado_sin_nombre_30" data-name="Degradado sin nombre 30" x1="160.23" y1="7.54" x2="269.3" y2="391.52" gradientUnits="userSpaceOnUse">
      <stop offset=".13" stop-color="#fdd558"/>
      <stop offset=".77" stop-color="#ef3711"/>
      <stop offset=".85" stop-color="#ee3413"/>
      <stop offset=".91" stop-color="#ec2e1c"/>
      <stop offset=".96" stop-color="#e8232c"/>
      <stop offset=".99" stop-color="#e4173d"/>
    </linearGradient>
    <linearGradient id="Degradado_sin_nombre_30-2" data-name="Degradado sin nombre 30" x1="174.46" y1="66.06" x2="251.42" y2="337" xlink:href="#Degradado_sin_nombre_30"/>
  </defs>
  <g id="Capa_1-2" data-name="Capa 1">
    <g>
      <path class="cls-8" d="M0,423.82h34.29v10.05H11.69v6.46h20.46v9.32H11.69v6.76h22.9v10.05H0v-42.63Z"/>
      <path class="cls-2" d="M39.93,430.27h10.03v27.4h17.53v8.79h-27.56v-36.19Z"/>
      <path class="cls-7" d="M81.25,460.12l6.58-7.86c4.2,3.35,8.89,5.12,13.82,5.12,3.17,0,4.87-1.1,4.87-2.92v-.12c0-1.77-1.4-2.74-7.19-4.08-9.08-2.07-16.08-4.63-16.08-13.4v-.12c0-7.92,6.27-13.64,16.5-13.64,7.25,0,12.91,1.95,17.54,5.67l-5.91,8.34c-3.9-2.74-8.16-4.2-11.94-4.2-2.86,0-4.26,1.22-4.26,2.74v.12c0,1.95,1.46,2.8,7.37,4.14,9.81,2.13,15.9,5.3,15.9,13.28v.12c0,8.71-6.88,13.89-17.24,13.89-7.55,0-14.74-2.38-19.98-7.07Z"/>
      <path class="cls-12" d="M123.29,448.59v-.1c0-10.39,8.38-18.82,19.54-18.82s19.44,8.32,19.44,18.72v.1c0,10.39-8.38,18.82-19.54,18.82s-19.44-8.32-19.44-18.72ZM152.04,448.59v-.1c0-5.22-3.77-9.77-9.31-9.77s-9.15,4.45-9.15,9.67v.1c0,5.22,3.77,9.77,9.26,9.77s9.2-4.45,9.2-9.67Z"/>
      <path class="cls-4" d="M167.1,430.39h9.36l14.89,19.13v-19.13h9.93v36.19h-8.79l-15.46-19.85v19.85h-9.93v-36.19Z"/>
      <path class="cls-13" d="M206.11,448.59v-.1c0-10.39,8.38-18.82,19.54-18.82s19.44,8.32,19.44,18.72v.1c0,10.39-8.38,18.82-19.54,18.82s-19.44-8.32-19.44-18.72ZM234.85,448.59v-.1c0-5.22-3.77-9.77-9.31-9.77s-9.15,4.45-9.15,9.67v.1c0,5.22,3.77,9.77,9.26,9.77s9.2-4.45,9.2-9.67Z"/>
      <path class="cls-11" d="M249.92,430.39h17.11c5.53,0,9.36,1.45,11.79,3.93,2.12,2.07,3.21,4.86,3.21,8.43v.1c0,5.53-2.95,9.2-7.44,11.12l8.63,12.61h-11.58l-7.29-10.96h-4.39v10.96h-10.03v-36.19ZM266.56,447.77c3.41,0,5.38-1.65,5.38-4.29v-.11c0-2.84-2.07-4.29-5.43-4.29h-6.57v8.68h6.62Z"/>
      <path class="cls-1" d="M288.04,430.39h29.11v8.53h-19.18v5.48h17.37v7.91h-17.37v5.74h19.44v8.53h-29.37v-36.19Z"/>
      <path class="cls-6" d="M322.23,430.39h9.36l14.89,19.13v-19.13h9.93v36.19h-8.79l-15.46-19.85v19.85h-9.93v-36.19Z"/>
      <path class="cls-3" d="M361.24,461.21l5.58-6.67c3.57,2.84,7.55,4.34,11.74,4.34,2.69,0,4.13-.93,4.13-2.48v-.1c0-1.5-1.19-2.33-6.1-3.46-7.7-1.76-13.65-3.93-13.65-11.37v-.11c0-6.72,5.33-11.58,14.01-11.58,6.15,0,10.96,1.65,14.89,4.81l-5.01,7.08c-3.31-2.33-6.93-3.57-10.14-3.57-2.43,0-3.62,1.03-3.62,2.33v.11c0,1.65,1.24,2.38,6.26,3.52,8.32,1.81,13.49,4.5,13.49,11.27v.11c0,7.39-5.84,11.79-14.63,11.79-6.41,0-12.51-2.02-16.96-6Z"/>
      <path class="cls-9" d="M397.65,430.39h29.11v8.53h-19.18v5.48h17.37v7.91h-17.37v5.74h19.44v8.53h-29.37v-36.19Z"/>
    </g>
    <g>
      <path d="M395.22,199.53c0-99.5-80.95-180.46-180.46-180.46S34.31,100.03,34.31,199.53s80.95,180.46,180.46,180.46,180.46-80.95,180.46-180.46Z"/>
      <path class="cls-10" d="M214.76,0C104.56,0,15.23,89.33,15.23,199.53s89.33,199.53,199.53,199.53,199.53-89.33,199.53-199.53S324.96,0,214.76,0ZM34.31,199.53c0-99.5,80.95-180.46,180.46-180.46s180.46,80.95,180.46,180.46-80.95,180.46-180.46,180.46S34.31,299.04,34.31,199.53Z"/>
      <path class="cls-5" d="M97.67,293.81l41.4-49.43c26.45,21.08,55.96,32.19,86.99,32.19,19.94,0,30.68-6.9,30.68-18.4v-.76c0-11.11-8.82-17.24-45.24-25.68-57.11-13.03-101.17-29.12-101.17-84.31v-.78c0-49.82,39.48-85.85,103.86-85.85,45.61,0,81.25,12.26,110.38,35.65l-37.18,52.51c-24.53-17.24-51.35-26.45-75.12-26.45-18.01,0-26.82,7.66-26.82,17.24v.78c0,12.26,9.19,17.62,46.37,26.06,61.71,13.4,100.04,33.35,100.04,83.54v.78c0,54.8-43.32,87.38-108.46,87.38-47.53,0-92.76-14.95-125.72-44.47Z"/>
    </g>
  </g>
</svg>