<?xml version="1.0" encoding="UTF-8"?>
<svg id="Capa_2" data-name="Capa 2" xmlns="http://www.w3.org/2000/svg" viewBox="0 0 389.64 40.35">
  <defs>
    <style>
      .cls-1 {
        fill: #fff;
      }
    </style>
  </defs>
  <g id="Capa_1-2" data-name="Capa 1">
    <path class="cls-1" d="M.05.68h31.28v9.17H10.72v5.89h18.67v8.5H10.72v6.17h20.89v9.17H.05V.68Z"/>
    <path class="cls-1" d="M36.48,6.56h9.15v25h15.99v8.02h-25.14V6.56Z"/>
    <path class="cls-1" d="M74.17,33.79l6-7.17c3.83,3.06,8.11,4.67,12.61,4.67,2.89,0,4.45-1,4.45-2.67v-.11c0-1.61-1.28-2.5-6.56-3.72-8.28-1.89-14.67-4.22-14.67-12.22v-.11C76.01,5.23,81.73.01,91.06.01c6.61,0,11.78,1.78,16,5.17l-5.39,7.61c-3.56-2.5-7.44-3.83-10.89-3.83-2.61,0-3.89,1.11-3.89,2.5v.11c0,1.78,1.33,2.55,6.72,3.78,8.95,1.94,14.5,4.83,14.5,12.11v.11c0,7.94-6.28,12.67-15.72,12.67-6.89,0-13.45-2.17-18.22-6.45Z"/>
    <path class="cls-1" d="M112.52,23.27v-.09c0-9.48,7.64-17.17,17.83-17.17s17.73,7.59,17.73,17.07v.09c0,9.48-7.64,17.17-17.83,17.17s-17.73-7.59-17.73-17.07ZM138.74,23.27v-.09c0-4.76-3.44-8.91-8.49-8.91s-8.35,4.06-8.35,8.82v.09c0,4.76,3.44,8.91,8.44,8.91s8.39-4.06,8.39-8.82Z"/>
    <path class="cls-1" d="M152.49,6.67h8.54l13.58,17.45V6.67h9.06v33.01h-8.02l-14.1-18.11v18.11h-9.06V6.67Z"/>
    <path class="cls-1" d="M188.07,23.27v-.09c0-9.48,7.64-17.17,17.83-17.17s17.73,7.59,17.73,17.07v.09c0,9.48-7.64,17.17-17.83,17.17s-17.73-7.59-17.73-17.07ZM214.29,23.27v-.09c0-4.76-3.44-8.91-8.49-8.91s-8.35,4.06-8.35,8.82v.09c0,4.76,3.44,8.91,8.44,8.91s8.39-4.06,8.39-8.82Z"/>
    <path class="cls-1" d="M228.03,6.67h15.61c5.05,0,8.54,1.32,10.75,3.58,1.93,1.89,2.92,4.43,2.92,7.69v.09c0,5.05-2.69,8.39-6.79,10.14l7.88,11.51h-10.56l-6.65-10h-4.01v10h-9.15V6.67ZM243.22,22.52c3.11,0,4.9-1.51,4.9-3.91v-.1c0-2.59-1.89-3.91-4.95-3.91h-5.99v7.92h6.04Z"/>
    <path class="cls-1" d="M262.81,6.67h26.55v7.78h-17.5v5h15.85v7.22h-15.85v5.23h17.73v7.78h-26.79V6.67Z"/>
    <g>
      <path class="cls-1" d="M0,.67h31.29v9.17H10.67v5.89h18.67v8.5H10.67v6.17h20.89v9.17H0V.67Z"/>
      <path class="cls-1" d="M36.43,6.55h9.15v25h15.99v8.02h-25.14V6.55Z"/>
      <path class="cls-1" d="M74.14,33.79l6-7.17c3.83,3.06,8.11,4.67,12.61,4.67,2.89,0,4.45-1,4.45-2.67v-.11c0-1.61-1.28-2.5-6.56-3.72-8.28-1.89-14.67-4.22-14.67-12.22v-.11c0-7.22,5.72-12.45,15.06-12.45,6.61,0,11.78,1.78,16.01,5.17l-5.39,7.61c-3.56-2.5-7.45-3.83-10.89-3.83-2.61,0-3.89,1.11-3.89,2.5v.11c0,1.78,1.33,2.55,6.72,3.78,8.95,1.94,14.51,4.84,14.51,12.11v.11c0,7.95-6.28,12.67-15.73,12.67-6.89,0-13.45-2.17-18.23-6.45Z"/>
      <path class="cls-1" d="M112.5,23.27v-.09c0-9.48,7.64-17.17,17.83-17.17s17.74,7.6,17.74,17.08v.09c0,9.48-7.64,17.17-17.83,17.17s-17.74-7.6-17.74-17.08ZM138.73,23.27v-.09c0-4.77-3.44-8.92-8.49-8.92s-8.35,4.06-8.35,8.82v.09c0,4.77,3.44,8.92,8.45,8.92s8.4-4.06,8.4-8.82Z"/>
      <path class="cls-1" d="M152.48,6.66h8.54l13.59,17.45V6.66h9.06v33.02h-8.02l-14.11-18.12v18.12h-9.06V6.66Z"/>
      <path class="cls-1" d="M188.06,23.27v-.09c0-9.48,7.64-17.17,17.83-17.17s17.74,7.6,17.74,17.08v.09c0,9.48-7.64,17.17-17.83,17.17s-17.74-7.6-17.74-17.08ZM214.29,23.27v-.09c0-4.77-3.44-8.92-8.49-8.92s-8.35,4.06-8.35,8.82v.09c0,4.77,3.44,8.92,8.45,8.92s8.4-4.06,8.4-8.82Z"/>
      <path class="cls-1" d="M228.04,6.66h15.61c5.05,0,8.54,1.32,10.76,3.59,1.93,1.89,2.93,4.43,2.93,7.69v.09c0,5.05-2.69,8.4-6.79,10.14l7.88,11.51h-10.57l-6.65-10h-4.01v10h-9.15V6.66ZM243.23,22.51c3.11,0,4.91-1.51,4.91-3.91v-.1c0-2.59-1.89-3.91-4.95-3.91h-5.99v7.92h6.04Z"/>
      <path class="cls-1" d="M262.83,6.66h26.56v7.78h-17.5v5h15.85v7.22h-15.85v5.24h17.74v7.78h-26.79V6.66Z"/>
      <path class="cls-1" d="M294.03,6.66h8.54l13.59,17.45V6.66h9.06v33.02h-8.02l-14.11-18.12v18.12h-9.06V6.66Z"/>
      <path class="cls-1" d="M329.61,34.78l5.1-6.08c3.26,2.59,6.89,3.96,10.71,3.96,2.45,0,3.77-.85,3.77-2.26v-.09c0-1.37-1.08-2.12-5.57-3.16-7.03-1.6-12.45-3.58-12.45-10.38v-.1c0-6.13,4.86-10.57,12.78-10.57,5.61,0,10,1.51,13.59,4.39l-4.57,6.46c-3.02-2.12-6.32-3.26-9.25-3.26-2.22,0-3.3.94-3.3,2.12v.1c0,1.51,1.13,2.17,5.71,3.21,7.59,1.65,12.31,4.1,12.31,10.28v.1c0,6.75-5.33,10.76-13.35,10.76-5.85,0-11.42-1.84-15.47-5.47Z"/>
      <path class="cls-1" d="M362.84,6.66h26.56v7.78h-17.5v5h15.85v7.22h-15.85v5.24h17.74v7.78h-26.79V6.66Z"/>
    </g>
  </g>
</svg>