<?xml version="1.0" encoding="UTF-8"?>
<svg id="Capa_2" data-name="Capa 2" xmlns="http://www.w3.org/2000/svg" viewBox="0 0 364.13 364.13">
  <defs>
    <style>
      .cls-1 {
        fill: #fff;
      }
    </style>
  </defs>
  <g id="Capa_1-2" data-name="Capa 1">
    <g>
      <path class="cls-1" d="M182.07,0C81.51,0,0,81.51,0,182.07s81.51,182.07,182.07,182.07,182.07-81.51,182.07-182.07S282.62,0,182.07,0ZM17.41,182.07C17.41,91.27,91.27,17.41,182.07,17.41s164.66,73.87,164.66,164.66-73.87,164.66-164.66,164.66S17.41,272.86,17.41,182.07Z"/>
      <path class="cls-1" d="M75.23,268.09l37.77-45.11c24.13,19.24,51.06,29.37,79.38,29.37,18.2,0,27.99-6.29,27.99-16.79v-.7c0-10.14-8.04-15.73-41.28-23.44-52.11-11.89-92.32-26.57-92.32-76.93v-.71c0-45.46,36.02-78.34,94.77-78.34,41.62,0,74.14,11.19,100.72,32.53l-33.93,47.91c-22.38-15.73-46.86-24.13-68.54-24.13-16.43,0-24.47,6.99-24.47,15.73v.71c0,11.19,8.39,16.07,42.31,23.78,56.31,12.23,91.28,30.43,91.28,76.23v.71c0,50-39.52,79.73-98.97,79.73-43.37,0-84.64-13.64-114.71-40.58Z"/>
    </g>
  </g>
</svg>