<?xml version="1.0" encoding="UTF-8"?>
<svg id="Capa_2" data-name="Capa 2" xmlns="http://www.w3.org/2000/svg" viewBox="0 0 389.64 426.4">
  <defs>
    <style>
      .cls-1 {
        fill: #fff;
      }
    </style>
  </defs>
  <g id="Capa_1-2" data-name="Capa 1">
    <path class="cls-1" d="M.05,386.73h31.28v9.17H10.72v5.89h18.67v8.5H10.72v6.17h20.89v9.17H.05v-38.89Z"/>
    <path class="cls-1" d="M36.48,392.61h9.15v25h15.99v8.02h-25.14v-33.01Z"/>
    <path class="cls-1" d="M74.17,419.85l6-7.17c3.83,3.06,8.11,4.67,12.61,4.67,2.89,0,4.45-1,4.45-2.67v-.11c0-1.61-1.28-2.5-6.56-3.72-8.28-1.89-14.67-4.22-14.67-12.22v-.11c0-7.22,5.72-12.44,15.06-12.44,6.61,0,11.78,1.78,16,5.17l-5.39,7.61c-3.56-2.5-7.44-3.83-10.89-3.83-2.61,0-3.89,1.11-3.89,2.5v.11c0,1.78,1.33,2.55,6.72,3.78,8.95,1.94,14.5,4.83,14.5,12.11v.11c0,7.94-6.28,12.67-15.72,12.67-6.89,0-13.45-2.17-18.22-6.45Z"/>
    <path class="cls-1" d="M112.52,409.33v-.09c0-9.48,7.64-17.17,17.83-17.17s17.73,7.59,17.73,17.07v.09c0,9.48-7.64,17.17-17.83,17.17s-17.73-7.59-17.73-17.07ZM138.74,409.33v-.09c0-4.76-3.44-8.91-8.49-8.91s-8.35,4.06-8.35,8.82v.09c0,4.76,3.44,8.91,8.44,8.91s8.39-4.06,8.39-8.82Z"/>
    <path class="cls-1" d="M152.49,392.73h8.54l13.58,17.45v-17.45h9.06v33.01h-8.02l-14.1-18.11v18.11h-9.06v-33.01Z"/>
    <path class="cls-1" d="M188.07,409.33v-.09c0-9.48,7.64-17.17,17.83-17.17s17.73,7.59,17.73,17.07v.09c0,9.48-7.64,17.17-17.83,17.17s-17.73-7.59-17.73-17.07ZM214.29,409.33v-.09c0-4.76-3.44-8.91-8.49-8.91s-8.35,4.06-8.35,8.82v.09c0,4.76,3.44,8.91,8.44,8.91s8.39-4.06,8.39-8.82Z"/>
    <path class="cls-1" d="M228.03,392.73h15.61c5.05,0,8.54,1.32,10.75,3.58,1.93,1.89,2.92,4.43,2.92,7.69v.09c0,5.05-2.69,8.39-6.79,10.14l7.88,11.51h-10.56l-6.65-10h-4.01v10h-9.15v-33.01ZM243.22,408.58c3.11,0,4.9-1.51,4.9-3.91v-.1c0-2.59-1.89-3.91-4.95-3.91h-5.99v7.92h6.04Z"/>
    <path class="cls-1" d="M262.81,392.73h26.55v7.78h-17.5v5h15.85v7.22h-15.85v5.23h17.73v7.78h-26.79v-33.01Z"/>
    <g>
      <path class="cls-1" d="M0,386.72h31.29v9.17H10.67v5.89h18.67v8.5H10.67v6.17h20.89v9.17H0v-38.9Z"/>
      <path class="cls-1" d="M36.43,392.6h9.15v25h15.99v8.02h-25.14v-33.02Z"/>
      <path class="cls-1" d="M74.14,419.84l6-7.17c3.83,3.06,8.11,4.67,12.61,4.67,2.89,0,4.45-1,4.45-2.67v-.11c0-1.61-1.28-2.5-6.56-3.72-8.28-1.89-14.67-4.22-14.67-12.22v-.11c0-7.22,5.72-12.45,15.06-12.45,6.61,0,11.78,1.78,16.01,5.17l-5.39,7.61c-3.56-2.5-7.45-3.83-10.89-3.83-2.61,0-3.89,1.11-3.89,2.5v.11c0,1.78,1.33,2.55,6.72,3.78,8.95,1.94,14.51,4.84,14.51,12.11v.11c0,7.95-6.28,12.67-15.73,12.67-6.89,0-13.45-2.17-18.23-6.45Z"/>
      <path class="cls-1" d="M112.5,409.33v-.09c0-9.48,7.64-17.17,17.83-17.17s17.74,7.6,17.74,17.08v.09c0,9.48-7.64,17.17-17.83,17.17s-17.74-7.6-17.74-17.08ZM138.73,409.33v-.09c0-4.77-3.44-8.92-8.49-8.92s-8.35,4.06-8.35,8.82v.09c0,4.77,3.44,8.92,8.45,8.92s8.4-4.06,8.4-8.82Z"/>
      <path class="cls-1" d="M152.48,392.72h8.54l13.59,17.45v-17.45h9.06v33.02h-8.02l-14.11-18.12v18.12h-9.06v-33.02Z"/>
      <path class="cls-1" d="M188.06,409.33v-.09c0-9.48,7.64-17.17,17.83-17.17s17.74,7.6,17.74,17.08v.09c0,9.48-7.64,17.17-17.83,17.17s-17.74-7.6-17.74-17.08ZM214.29,409.33v-.09c0-4.77-3.44-8.92-8.49-8.92s-8.35,4.06-8.35,8.82v.09c0,4.77,3.44,8.92,8.45,8.92s8.4-4.06,8.4-8.82Z"/>
      <path class="cls-1" d="M228.04,392.72h15.61c5.05,0,8.54,1.32,10.76,3.59,1.93,1.89,2.93,4.43,2.93,7.69v.09c0,5.05-2.69,8.4-6.79,10.14l7.88,11.51h-10.57l-6.65-10h-4.01v10h-9.15v-33.02ZM243.23,408.57c3.11,0,4.91-1.51,4.91-3.91v-.1c0-2.59-1.89-3.91-4.95-3.91h-5.99v7.92h6.04Z"/>
      <path class="cls-1" d="M262.83,392.72h26.56v7.78h-17.5v5h15.85v7.22h-15.85v5.24h17.74v7.78h-26.79v-33.02Z"/>
      <path class="cls-1" d="M294.03,392.72h8.54l13.59,17.45v-17.45h9.06v33.02h-8.02l-14.11-18.12v18.12h-9.06v-33.02Z"/>
      <path class="cls-1" d="M329.61,420.84l5.1-6.08c3.26,2.59,6.89,3.96,10.71,3.96,2.45,0,3.77-.85,3.77-2.26v-.09c0-1.37-1.08-2.12-5.57-3.16-7.03-1.6-12.45-3.58-12.45-10.38v-.1c0-6.13,4.86-10.57,12.78-10.57,5.61,0,10,1.51,13.59,4.39l-4.57,6.46c-3.02-2.12-6.32-3.26-9.25-3.26-2.22,0-3.3.94-3.3,2.12v.1c0,1.51,1.13,2.17,5.71,3.21,7.59,1.65,12.31,4.1,12.31,10.28v.1c0,6.75-5.33,10.76-13.35,10.76-5.85,0-11.42-1.84-15.47-5.47Z"/>
      <path class="cls-1" d="M362.84,392.72h26.56v7.78h-17.5v5h15.85v7.22h-15.85v5.24h17.74v7.78h-26.79v-33.02Z"/>
    </g>
    <g>
      <path class="cls-1" d="M195.96,0C95.41,0,13.9,81.51,13.9,182.07s81.51,182.07,182.07,182.07,182.07-81.51,182.07-182.07S296.52,0,195.96,0ZM31.3,182.07C31.3,91.27,105.17,17.41,195.96,17.41s164.66,73.87,164.66,164.66-73.87,164.66-164.66,164.66S31.3,272.86,31.3,182.07Z"/>
      <path class="cls-1" d="M89.12,268.09l37.77-45.11c24.13,19.24,51.06,29.37,79.38,29.37,18.2,0,27.99-6.29,27.99-16.79v-.7c0-10.14-8.04-15.73-41.28-23.44-52.11-11.89-92.32-26.57-92.32-76.93v-.71c0-45.46,36.02-78.34,94.77-78.34,41.62,0,74.14,11.19,100.72,32.53l-33.93,47.91c-22.38-15.73-46.86-24.13-68.54-24.13-16.43,0-24.47,6.99-24.47,15.73v.71c0,11.19,8.39,16.07,42.31,23.78,56.31,12.23,91.28,30.43,91.28,76.23v.71c0,50-39.52,79.73-98.97,79.73-43.37,0-84.64-13.64-114.71-40.58Z"/>
    </g>
  </g>
</svg>